<svg width="17" height="13" viewBox="0 0 17 13" fill="none" xmlns="http://www.w3.org/2000/svg">
<path fill-rule="evenodd" clip-rule="evenodd" d="M16.9595 1.55C16.3595 1.8 15.7595 2 15.0595 2.05C15.7595 1.65 16.2595 1 16.5095 0.25C15.8595 0.65 15.1595 0.9 14.4095 1.05C13.8095 0.4 12.9595 0 12.0595 0C10.2595 0 8.75947 1.45 8.75947 3.3C8.75947 3.55 8.80947 3.8 8.85947 4.05C6.10947 3.9 3.70947 2.6 2.10947 0.6C1.80947 1.1 1.65947 1.65 1.65947 2.25C1.65947 3.4 2.25947 4.4 3.10947 5C2.55947 5 2.05947 4.85 1.60947 4.6V4.65C1.60947 6.25 2.75947 7.55 4.25947 7.85C3.95947 7.9 3.70947 7.95 3.40947 7.95C3.20947 7.95 3.00947 7.95 2.80947 7.9C3.20947 9.2 4.45947 10.15 5.85947 10.2C4.75947 11.1 3.30947 11.6 1.75947 11.6C1.50947 11.6 1.20947 11.6 0.959473 11.55C2.40947 12.5 4.15947 13 6.00947 13C12.0595 13 15.3595 8 15.3595 3.65C15.3595 3.5 15.3595 3.35 15.3595 3.25C15.9595 2.8 16.5095 2.2 16.9595 1.55Z" fill="black"/>
</svg>