<svg width="16" height="11" viewBox="0 0 16 11" fill="none" xmlns="http://www.w3.org/2000/svg">
<path fill-rule="evenodd" clip-rule="evenodd" d="M4.59964 0C5.06425 0 5.4824 0.046461 5.85408 0.139383C6.22577 0.232305 6.551 0.371688 6.82976 0.557532C7.10853 0.743376 7.29437 1.02214 7.48022 1.30091C7.6196 1.62613 7.71252 1.99782 7.71252 2.46243C7.71252 2.9735 7.6196 3.39165 7.3873 3.71688C7.15499 4.04211 6.82976 4.32087 6.41162 4.55318C7.01561 4.73902 7.43376 5.06425 7.75898 5.4824C8.03775 5.94701 8.17713 6.45808 8.17713 7.10853C8.17713 7.6196 8.08421 8.03775 7.89837 8.40944C7.71252 8.78113 7.43376 9.10635 7.10853 9.33866C6.7833 9.57096 6.41162 9.75681 5.99347 9.84973C5.57532 9.94265 5.15717 10.0356 4.73902 10.0356H0V0H4.59964ZM4.32087 4.04211C4.69256 4.04211 5.01779 3.94918 5.25009 3.76334C5.4824 3.5775 5.62178 3.25227 5.62178 2.83412C5.62178 2.60181 5.57532 2.41597 5.4824 2.27659C5.38947 2.13721 5.29655 1.99782 5.15717 1.9049C5.01779 1.81198 4.8784 1.76552 4.69256 1.71906C4.50672 1.6726 4.32087 1.6726 4.13503 1.6726H2.13721V3.99564H4.32087V4.04211ZM4.41381 8.31651H4.41379V8.27005H2.13721V5.52886H4.46025C4.92486 5.52886 5.29655 5.62178 5.57532 5.85408C5.85408 6.08639 5.99347 6.45808 5.99347 6.96915C5.99347 7.24791 5.94701 7.43376 5.85408 7.6196C5.80762 7.80544 5.66824 7.94483 5.52886 8.03775C5.38947 8.17713 5.20363 8.22359 5.01779 8.27005C4.83195 8.31651 4.64611 8.31651 4.41381 8.31651ZM12.4515 8.6882C11.894 8.6882 11.4759 8.54882 11.1971 8.27005C10.9183 7.99129 10.686 7.43376 10.686 6.87622H15.9826C16.029 6.31869 15.9826 5.76116 15.8432 5.25009C15.7503 4.73902 15.518 4.27441 15.2392 3.85626C14.914 3.43811 14.5887 3.11289 14.1241 2.88058C13.6595 2.64828 13.1485 2.50889 12.5445 2.50889C11.9869 2.50889 11.5223 2.60181 11.0577 2.78766C10.5931 2.9735 10.2214 3.25227 9.89619 3.5775C9.57096 3.90272 9.33866 4.32087 9.15281 4.78548C8.96697 5.25009 8.87405 5.76116 8.87405 6.31869C8.87405 6.87622 8.92051 7.3873 9.10635 7.85191C9.24574 8.31651 9.47804 8.73466 9.80327 9.05989C10.082 9.38512 10.4537 9.66388 10.9183 9.84973C11.3365 10.0356 11.8475 10.1285 12.4051 10.1285C13.1949 10.1285 13.8918 9.94265 14.4494 9.57096C15.0069 9.19927 15.425 8.59528 15.7038 7.71252H13.9848C13.9383 7.94483 13.7524 8.17713 13.4737 8.36298C13.1949 8.59528 12.8232 8.6882 12.4515 8.6882ZM12.3122 4.04211C12.8232 4.04211 13.1949 4.18149 13.4272 4.46025C13.6595 4.73902 13.7989 5.11071 13.7989 5.62178H10.6396C10.6396 5.51149 10.6687 5.40119 10.7038 5.26788C10.7131 5.23272 10.7228 5.19596 10.7325 5.15717C10.7789 4.97132 10.8719 4.78548 11.0113 4.6461C11.1506 4.46025 11.3365 4.32087 11.5223 4.22795C11.7546 4.08857 11.9869 4.04211 12.3122 4.04211ZM14.2635 0.650454H10.3143V1.62613H14.2635V0.650454Z" fill="black"/>
</svg>