<svg id="Logo-2" data-name="Logo" xmlns="http://www.w3.org/2000/svg" xmlns:xlink="http://www.w3.org/1999/xlink" width="255" height="78" viewBox="0 0 255 78">
  <defs>
    <clipPath id="clip-path">
      <path id="Logo" d="M205.162,77.878a4.919,4.919,0,0,1-2.539-.7,9.031,9.031,0,0,1-4.64-10.387c.91-4.527,1.826-8.555,2.8-12.315a18.633,18.633,0,0,1-1.619,1.6,6.261,6.261,0,0,1-4.192,1.574,7.163,7.163,0,0,1-4.205-1.4,11.457,11.457,0,0,1-4.334-5.148,13.72,13.72,0,0,1-.481-1.694c-.062-.261-.126-.528-.2-.788a36.8,36.8,0,0,1,2.018-8.637q.248-.763.5-1.527l.017-.054c.962-2.971,1.957-6.044,3.034-9.031.517-1.433,1.16-2.847,1.783-4.214.277-.609.561-1.234.831-1.853.151-.346.307-.7.459-1.034.3-.678.617-1.378.9-2.077.38-.947.757-1.495,1.561-1.495a3.255,3.255,0,0,1,.882.149,14.206,14.206,0,0,1,3.67,1.524,3.783,3.783,0,0,1,1.76,2.217,4.644,4.644,0,0,1-.319,2.87c-.7,1.762-1.436,3.543-2.149,5.266-1.194,2.883-2.426,5.859-3.513,8.834-.892,2.44-1.61,4.991-2.3,7.458-.3,1.08-.617,2.194-.941,3.285l-.018.059a.706.706,0,0,0-.054.334c.086.42.188.844.287,1.254l0,.008q.046.192.092.384c.144-.062.3-.113.453-.163a2.259,2.259,0,0,0,.891-.438c.5-.49,1.017-.979,1.515-1.452a37.828,37.828,0,0,0,5.58-6.141,3.323,3.323,0,0,1,.375-.471,1,1,0,0,1,.639-.374.444.444,0,0,1,.347.187c1.6-4.79,3.273-9.482,5.285-15.053.656-1.816,1.38-3.642,2.08-5.408.51-1.287,1.036-2.613,1.532-3.926.32-.847.357-1.376.122-1.718s-.8-.514-1.81-.516H211.2a49.771,49.771,0,0,0-6.512.573c-1.688.224-3.434.456-5.166.539-.493.023-1,.035-1.5.035-.561,0-1.133-.015-1.7-.044-.51-.026-1.364-.069-1.35-.878.009-.572.526-.62.981-.662.1-.009.191-.018.279-.031l3.446-.51,3.686-.545a4.175,4.175,0,0,1-.472.027,4.133,4.133,0,0,1-3.647-2.13,2.787,2.787,0,0,1-.221-1.535,27.607,27.607,0,0,1,2.2-7.3l.014-.034q.137-.337.273-.673a1.792,1.792,0,0,1,1.817-1.174c.1,0,.21.005.319.016A8.356,8.356,0,0,1,208.73,4.6a3.079,3.079,0,0,1,.979,4.121,14.607,14.607,0,0,1-4.431,5.854,3.762,3.762,0,0,1-1.658.731c1.91-.28,3.152-.46,4.288-.622.286-.041.573-.083.86-.126a29.515,29.515,0,0,1,3.92-.406,3.161,3.161,0,0,0,3.1-2.109c.792-1.856,1.53-3.814,2.257-5.984.465-1.39.775-1.883,1.587-1.883A5.03,5.03,0,0,1,220.9,4.4c.167.046.335.09.5.134a7.315,7.315,0,0,1,3.641,1.741,4.2,4.2,0,0,1,1.349,4.324c-.194.726-.188,1.174.019,1.451s.623.406,1.388.426c.324.009.67.013,1.091.013.286,0,.572,0,.858,0s.572,0,.859,0l0-.312h.185c.505,0,1.017,0,1.513-.007h.023c.564,0,1.146-.008,1.72-.008,1.083,0,1.96.015,2.762.046a2.749,2.749,0,0,1,1.774.669,1.9,1.9,0,0,1,.542,1.927,2.123,2.123,0,0,1-1.806,1.257c-.966.139-1.961.185-2.924.23h-.006c-.351.016-.714.033-1.07.054L232,16.418c-1.792.108-3.644.219-5.469.292a3.11,3.11,0,0,0-3.084,2.066c-.711,1.715-1.471,3.443-2.206,5.115a97.82,97.82,0,0,0-5.393,14.25c-.411,1.557-.986,3.1-1.543,4.587-.385,1.03-.781,2.091-1.121,3.15-.97,3.026-1.892,6.122-2.742,9.2-.844,3.058-1.634,6.186-2.4,9.211l-.319,1.261c-.307,1.213-.653,2.649-.893,4.108a2.493,2.493,0,0,0,.138,1.025c.043.156.087.317.117.473.138-.071.29-.133.438-.193a2.188,2.188,0,0,0,.862-.508,25.523,25.523,0,0,0,2.4-3.206c2.123-3.5,4.289-7.159,6.62-11.191,1.109-1.916,2.211-3.879,3.277-5.777l.91-1.619a15.792,15.792,0,0,1-.4-8.419,30.122,30.122,0,0,1,7.292-14.955,43.9,43.9,0,0,1,4.939-4.347c.468-.372.951-.757,1.422-1.14a3.143,3.143,0,0,1,2.063-.71,5.5,5.5,0,0,1,1.561.251c.46.136.933.257,1.391.374a23.192,23.192,0,0,1,2.267.662l.26.1.013,0A11.146,11.146,0,0,1,245.51,22c1.581,1.254,2.073,3.037,1.5,5.452a60.036,60.036,0,0,1-4.508,11.776l-.1.206a42.423,42.423,0,0,1-2.5,4.752,16.688,16.688,0,0,1-2.763,3.123,2.492,2.492,0,0,1-1.734.7,3.615,3.615,0,0,1-1.244-.246,9.732,9.732,0,0,1-3.871-2.4c-.347-.367-.779-.824-1.247-.824a.8.8,0,0,0-.45.147,2.549,2.549,0,0,0-.881,1.658,14.269,14.269,0,0,0-.121,3.78c.359,2.531,1.753,3.982,3.825,3.982a5.458,5.458,0,0,0,.894-.078,13.494,13.494,0,0,0,6.725-3.3,74.108,74.108,0,0,0,8.7-9.405c1.542-1.891,3.188-3.747,4.78-5.543l.723-.816a1.73,1.73,0,0,1,.633-.38c.109-.046.22-.094.323-.148a3.876,3.876,0,0,0,.16.4,1.338,1.338,0,0,1,.188.825l-.048.158a25.825,25.825,0,0,1-3.478,8.053c-.693.946-1.384,1.919-2.052,2.859l-.005.007c-1.23,1.732-2.5,3.522-3.837,5.215a31.338,31.338,0,0,1-4.178,4.289,7.92,7.92,0,0,1-5.412,1.773c-.239,0-.488-.007-.74-.02-.193.011-.387.016-.579.016a12.714,12.714,0,0,1-7.642-2.887,14.631,14.631,0,0,1-3.8-4A17.242,17.242,0,0,1,222.2,52.9c-1.548,3.978-3.339,8.128-5.477,12.688a76.493,76.493,0,0,1-4.1,7.349,9.87,9.87,0,0,1-5.572,4.628A6.377,6.377,0,0,1,205.162,77.878Zm33.95-51.827h0c-.145.1-.28.179-.409.259a4.6,4.6,0,0,0-.685.479c-.26.236-.5.5-.74.755-.165.178-.335.362-.51.536a32.961,32.961,0,0,0-6.857,10.439,3.866,3.866,0,0,0,.5,3.746c.251.449.518.659.84.659a1.368,1.368,0,0,0,.774-.318,9.244,9.244,0,0,0,2.886-4.006c1.2-2.745,2.369-5.562,3.494-8.286l.022-.054q.524-1.269,1.05-2.536a1.9,1.9,0,0,0,.211-.946,1.04,1.04,0,0,0-.348-.483c-.078-.077-.159-.156-.232-.242ZM106.179,77.878a4.919,4.919,0,0,1-2.539-.7A9.031,9.031,0,0,1,99,66.788a186.986,186.986,0,0,1,5.729-22.3c1.687-5.085,3.466-10.1,5.619-16.056.147-.4.3-.823.472-1.28-.246.174-.47.326-.682.465-.43.282-.877.55-1.309.809A17.268,17.268,0,0,0,106,30.391a16.7,16.7,0,0,1-2.879,1.948c-.481.279-.977.567-1.449.871l-.472.3c-1,.646-2.038,1.314-3.016,2.028-1.822,1.331-2,2.011-1.062,4.042.171.37.357.738.538,1.094s.357.7.524,1.064a12.078,12.078,0,0,1,1.061,7.352,15.327,15.327,0,0,1-3.238,6.663c-1.547,1.958-3.883,2.307-5.745,2.392l-.467.01.467-.01c-.172.008-.334.01-.51.01-.149,0-.3,0-.447,0s-.3,0-.447,0c-4.081-.36-7.114-1.47-9.546-3.491l-.13.2A5.231,5.231,0,0,1,74.711,57.4,6.682,6.682,0,0,1,71.2,56.322a10.585,10.585,0,0,1-5.294-8.47,11.416,11.416,0,0,0-.3-1.868c-.071-.284-.339-.761-.51-.769h-.022a1.1,1.1,0,0,0-.781.467c-.672.964-1.34,1.956-1.986,2.916l0,0c-1.253,1.861-2.549,3.786-3.931,5.59-1.4,1.825-2.869,2.675-4.63,2.675-.142,0-.288-.006-.434-.017-.349-.028-.7-.041-1.048-.055a6.749,6.749,0,0,1-4.09-1.074,11.658,11.658,0,0,1-3.3-3.66,11.48,11.48,0,0,1-1.367-5.134,15.357,15.357,0,0,1,2.369-9.213c.672-1.065,1.32-2.176,1.945-3.251a62.63,62.63,0,0,1,3.433-5.452,35.749,35.749,0,0,1,3.869-4.244c.557-.549,1.132-1.116,1.681-1.687.134-.14.268-.286.4-.427a6.834,6.834,0,0,1,1.468-1.324,6.456,6.456,0,0,1,3.377-.845c.089,0,.181,0,.273,0a15.2,15.2,0,0,1,9.531,3.639,2.467,2.467,0,0,0,1.254.71c.395,0,.653-.407.992-1.158.132-.292.274-.606.413-.925.664-1.526.967-2.019,2.015-2.019a9.741,9.741,0,0,1,1.341.137,5.439,5.439,0,0,1,3.571,2.4,4.6,4.6,0,0,1,.787,3.593,30.4,30.4,0,0,1-1.53,4.354c-.257.627-.522,1.275-.764,1.919-.3.8-.6,1.606-.889,2.386-.656,1.767-1.335,3.593-2.03,5.378-.265.679-.563,1.354-.852,2.006-.383.864-.779,1.758-1.1,2.668a34.281,34.281,0,0,0-1.267,4.713,2.3,2.3,0,0,0,.263,1.176c.075.186.152.379.205.562.169-.049.354-.084.533-.117a2.251,2.251,0,0,0,1.056-.376l.055-.048.055-.048A1.892,1.892,0,0,1,76.3,49.22,16.548,16.548,0,0,1,79.193,46.2c2.1-1.673,4.276-3.312,6.384-4.9l.005,0c.771-.58,1.569-1.18,2.359-1.779.157-.119.321-.234.48-.345.219-.153.446-.311.655-.483a2.057,2.057,0,0,0,.666-2.983c-.6-1.24-1.217-2.522-1.9-3.752a11.019,11.019,0,0,1-.688-9.836c.818-2.061,2.4-3.6,4.226-5.268a7.861,7.861,0,0,1,1.123-.84,6.875,6.875,0,0,1,3.629-1.253,5.207,5.207,0,0,1,1.088.118,21.842,21.842,0,0,1,3.515,1.013c2.924-.435,5.559-.825,8.194-1.2.286-.041.573-.083.86-.126a29.515,29.515,0,0,1,3.92-.406,3.161,3.161,0,0,0,3.1-2.109c.792-1.856,1.53-3.814,2.257-5.984.465-1.39.775-1.883,1.587-1.883a5.03,5.03,0,0,1,1.261.225c.167.046.335.09.5.134a7.315,7.315,0,0,1,3.641,1.741,4.2,4.2,0,0,1,1.349,4.324c-.194.726-.188,1.174.019,1.451s.623.406,1.388.426c.324.009.67.013,1.091.013.286,0,.572,0,.858,0s.572,0,.859,0l0-.312h.185c.5,0,1.017,0,1.512-.007h.023c.563,0,1.146-.008,1.72-.008,1.083,0,1.96.015,2.762.046a2.753,2.753,0,0,1,1.775.669,1.9,1.9,0,0,1,.541,1.926,2.123,2.123,0,0,1-1.807,1.257c-.966.139-1.961.185-2.924.23H135.4c-.351.016-.714.033-1.07.054l-1.319.079c-1.794.108-3.646.219-5.469.292a3.11,3.11,0,0,0-3.084,2.066c-.711,1.714-1.47,3.441-2.2,5.111l0,.006a97.791,97.791,0,0,0-5.392,14.247c-.411,1.557-.987,3.1-1.543,4.588-.384,1.028-.781,2.09-1.121,3.149-.97,3.026-1.892,6.122-2.742,9.2-.844,3.058-1.634,6.186-2.4,9.211l-.319,1.261c-.307,1.213-.653,2.649-.893,4.108a2.493,2.493,0,0,0,.138,1.025c.043.156.087.317.117.473.138-.071.29-.133.438-.193a2.188,2.188,0,0,0,.862-.508,25.523,25.523,0,0,0,2.4-3.206c2.123-3.5,4.289-7.159,6.62-11.191,1.111-1.919,2.213-3.883,3.279-5.782l.038-.068.869-1.546a15.792,15.792,0,0,1-.4-8.419,30.128,30.128,0,0,1,7.292-14.955,43.9,43.9,0,0,1,4.939-4.347c.468-.372.951-.757,1.422-1.14a3.143,3.143,0,0,1,2.063-.71,5.5,5.5,0,0,1,1.561.251c.459.136.932.257,1.389.373a23.254,23.254,0,0,1,2.271.663l.274.1A11.142,11.142,0,0,1,146.527,22c1.581,1.254,2.073,3.037,1.5,5.452a60.035,60.035,0,0,1-4.508,11.776l-.1.22a42.156,42.156,0,0,1-2.5,4.738,16.688,16.688,0,0,1-2.763,3.123,2.492,2.492,0,0,1-1.734.7,3.615,3.615,0,0,1-1.244-.246,9.738,9.738,0,0,1-3.871-2.4c-.347-.367-.779-.824-1.247-.824a.8.8,0,0,0-.45.147,2.555,2.555,0,0,0-.881,1.658,14.268,14.268,0,0,0-.122,3.78c.359,2.531,1.753,3.982,3.825,3.982a5.458,5.458,0,0,0,.894-.078,13.494,13.494,0,0,0,6.725-3.3,74.113,74.113,0,0,0,8.7-9.405c.783-.96,1.649-1.98,2.725-3.212a110.636,110.636,0,0,1,4.089-11.99c1.281-3.256,2.681-6.588,4.162-9.9.634-1.422,1.331-2.841,2.005-4.213s1.362-2.772,1.993-4.185c.825-1.843,1.533-3.783,2.219-5.66l.228-.624C166.588.415,167.037,0,167.836,0a4.6,4.6,0,0,1,1.157.188,8.022,8.022,0,0,1,3.974,2.818,3.106,3.106,0,0,1,.623,3.316l-.166.4c-.7,1.673-1.426,3.4-2.1,5.126-.179.456-.327.936-.47,1.4a15.339,15.339,0,0,1-.641,1.8c-.634,1.395-1.3,2.8-1.952,4.157-1.026,2.151-2.088,4.374-3.028,6.613-1.169,2.781-2.212,5.679-3.221,8.482-.3.829-.607,1.686-.916,2.531-.275.751-.5,1.54-.715,2.3l0,.01c-.1.352-.2.715-.31,1.07l.171.044.017,0,.215.056c.733-1.153,1.472-2.325,2.187-3.458l0,0c1.658-2.628,3.372-5.345,5.1-7.986a26.321,26.321,0,0,1,7.125-6.965,4.64,4.64,0,0,1,2.734-.824,6.318,6.318,0,0,1,1.391.161,20.518,20.518,0,0,1,4.192,1.426c3.155,1.48,4,4.383,4.643,7.48a15.619,15.619,0,0,1-.244,5.893c-.068.4-.138.805-.2,1.206a35.188,35.188,0,0,1-4.865,13A8.126,8.126,0,0,1,181.1,52.1l-.382.348c-1.495,1.361-3.04,2.768-4.685,4a6.6,6.6,0,0,1-4.1,1.3,12.554,12.554,0,0,1-3.763-.66c-.267-.084-.541-.167-.8-.247a11.731,11.731,0,0,1-4.95-2.42,1.43,1.43,0,0,0-.976-.441,1.624,1.624,0,0,0-1.164.608,4.707,4.707,0,0,1-3.285,1.853,3.587,3.587,0,0,1-1.318-.268,9.242,9.242,0,0,1-3.622-2.612,8.954,8.954,0,0,1-2.164-6.693l-.06.087c-1.112,1.564-2.373,3.336-3.681,4.993a31.337,31.337,0,0,1-4.178,4.289,7.92,7.92,0,0,1-5.412,1.773c-.239,0-.488-.007-.74-.02-.193.011-.387.016-.579.016a12.714,12.714,0,0,1-7.642-2.887,14.631,14.631,0,0,1-3.8-4,17.242,17.242,0,0,1-.576,1.779c-1.548,3.978-3.34,8.128-5.477,12.688a76.135,76.135,0,0,1-4.1,7.349,9.87,9.87,0,0,1-5.572,4.628A6.377,6.377,0,0,1,106.179,77.878ZM67.686,25.28a2.4,2.4,0,0,0-1.209.328A27.364,27.364,0,0,0,60.4,30.683a51.192,51.192,0,0,0-6.261,8.5,31.291,31.291,0,0,0-4.007,9,15.472,15.472,0,0,0-.29,1.94c-.032.3-.064.6-.1.9l.179.029c.01.121.019.242.027.363.02.29.04.59.088.883a1.467,1.467,0,0,0,.177.434c.027.05.054.1.079.151.317.65.617.928,1,.928a1.629,1.629,0,0,0,.778-.261,4.6,4.6,0,0,0,1.218-1.009l.321-.374a33.124,33.124,0,0,0,2.3-2.891c1.24-1.823,2.472-3.69,3.663-5.5,1.043-1.581,2.122-3.215,3.2-4.813,2.731-4.046,5-7.343,7.153-10.377a1.579,1.579,0,0,0-.029-2.074A2.717,2.717,0,0,0,67.686,25.28Zm24,16.206a2.073,2.073,0,0,0-1.17.515c-2.755,2.093-5.242,3.986-7.771,5.967a19.573,19.573,0,0,0-2.524,2.283,1.63,1.63,0,0,0-.538,1.482,1.578,1.578,0,0,0,1.206.942,20.188,20.188,0,0,0,2.3.469H83.2c.332.054.676.111,1.012.174l.033-.216c.106,0,.215,0,.319.006s.213.006.319.006a3.5,3.5,0,0,0,.365-.016c.254-.027.516-.045.768-.063a4.879,4.879,0,0,0,3.051-.9,10.1,10.1,0,0,0,3.628-9.265C92.574,41.965,92.227,41.486,91.687,41.486ZM179.37,25.717a2.361,2.361,0,0,0-1.408.535c-.332.3-.67.609-1,.9a28.516,28.516,0,0,0-4.11,4.243c-2.277,3.131-4.3,6.5-6.334,9.959-.894,1.517-1.69,3.133-2.46,4.695-.407.826-.827,1.68-1.258,2.511a2.331,2.331,0,0,0,.482,2.691,4.318,4.318,0,0,0,3.391,1.869,3.91,3.91,0,0,0,2.44-.9,20.809,20.809,0,0,0,5.434-5.632c.353-.614.743-1.224,1.12-1.813a23.26,23.26,0,0,0,2.016-3.607,44.181,44.181,0,0,0,2.762-11.526c.077-.652.157-1.326.248-1.986-.1-.221-.187-.464-.269-.7-.181-.517-.352-1.006-.663-1.159A.892.892,0,0,0,179.37,25.717Zm-39.241.334h0c-.146.1-.28.18-.411.26a4.591,4.591,0,0,0-.684.478c-.26.236-.5.5-.74.755-.165.178-.335.362-.51.536a32.96,32.96,0,0,0-6.857,10.439,3.866,3.866,0,0,0,.5,3.746c.251.449.518.659.84.659a1.368,1.368,0,0,0,.774-.318,9.243,9.243,0,0,0,2.886-4.006c1.206-2.746,2.37-5.564,3.5-8.289l.013-.031q.528-1.279,1.058-2.557a1.907,1.907,0,0,0,.211-.946,1.043,1.043,0,0,0-.349-.484c-.078-.076-.159-.155-.231-.241Zm-27.912-9.183a49.8,49.8,0,0,0-6.513.573c-.646.086-1.313.174-1.972.253a1.926,1.926,0,0,1,.231.317,1.079,1.079,0,0,1,.15.883,1.025,1.025,0,0,1-.629.591,1.625,1.625,0,0,1-.384.112c-2.659.383-4.6,2.144-6.316,3.7-2.976,2.7-4.126,5.76-3.418,9.109.273,1.293.641,1.82,1.269,1.82a3.152,3.152,0,0,0,1.475-.561c.8-.475,1.59-.985,2.358-1.478.941-.6,1.913-1.23,2.9-1.794,2.069-1.185,4.2-2.344,6.257-3.465l.034-.018c.811-.441,1.649-.9,2.471-1.349.539-.3,1.1-.6,1.648-.886q.32-.814.643-1.626c.512-1.291,1.041-2.625,1.539-3.945.32-.847.357-1.376.122-1.718s-.8-.514-1.81-.516ZM27.5,68.452h-.015a6.774,6.774,0,0,1-3.516-.729A28.368,28.368,0,0,1,20.8,65.336l-.082-.068a3.329,3.329,0,0,1-1.253-2.627c-.008-.754-.053-1.519-.1-2.259-.019-.315-.038-.64-.054-.962a33.242,33.242,0,0,1,1.409-8.473c1.176-4.216,2.709-8.387,4.193-12.421q.332-.9.663-1.806l.159-.434c1.4-3.827,2.844-7.784,4.6-11.542l.169-.363c.332-.71.674-1.442.993-2.171a.362.362,0,0,0-.048-.344.433.433,0,0,0-.34-.209.276.276,0,0,0-.071.009c-.308.082-.623.162-.927.239h-.006c-.852.217-1.732.44-2.575.729-.633.217-1.277.434-1.9.644-2.453.828-4.989,1.684-7.422,2.677a49.443,49.443,0,0,0-9.9,5.138,10.453,10.453,0,0,0-3,3.043,4.685,4.685,0,0,0-.94,2.8,2.427,2.427,0,0,1-.058.64.991.991,0,0,1-.944.82.823.823,0,0,1-.541-.2A6.634,6.634,0,0,1,.114,33.725c0-.06-.012-.121-.019-.18l0-.034a8.319,8.319,0,0,1,2.615-7.593,22.715,22.715,0,0,1,4.72-3.34,95.939,95.939,0,0,1,10.594-4.713A164.434,164.434,0,0,1,36.039,12.2c2.059-.552,4.183-1,6.236-1.433,1.19-.251,2.419-.51,3.623-.787C49.452,9.16,53,8.49,56.442,7.982c1.316-.194,2.877-.413,4.472-.571.649-.064,1.309-.137,1.947-.208a56.909,56.909,0,0,1,6.212-.455h.2a2.488,2.488,0,0,1,2.536,1.564,7.321,7.321,0,0,1,.78,3.956A1.958,1.958,0,0,1,70.774,14.3l-.454.094-.034.007a29.816,29.816,0,0,1-4.165.66,78.249,78.249,0,0,0-8.107.864c-1.493.25-2.988.5-4.435.737-1.879.311-3.822.632-5.741.956-.385.065-.772.156-1.146.243-.243.057-.494.116-.743.167l-.023,0c-2.307.476-2.307.476-3.426,2.39a15.994,15.994,0,0,0-.806,1.521c-.446.994-.888,2.011-1.315,2.994l0,.005c-.864,1.989-1.758,4.046-2.734,6.02-1.367,2.766-2.48,5.6-3.595,8.507-.824,2.146-1.592,4.354-2.334,6.488l-.136.391c-.311.9-.609,1.812-.9,2.7-.234.72-.475,1.463-.723,2.191a23.609,23.609,0,0,0-1.393,5.611,11.851,11.851,0,0,1-.315,1.689c-.081.343-.166.7-.228,1.049a12.569,12.569,0,0,0,.446,6.782c.013.035.027.069.04.1l0,.007a2.225,2.225,0,0,1,.1.294,1.466,1.466,0,0,1-.2,1.262A1.117,1.117,0,0,1,27.5,68.452Z" transform="translate(0 0)"/>
    </clipPath>
  </defs>
  <g id="Group_2" data-name="Group 2">
    <path id="Logo-3" data-name="Logo" d="M205.162,77.878a4.919,4.919,0,0,1-2.539-.7,9.031,9.031,0,0,1-4.64-10.387c.91-4.527,1.826-8.555,2.8-12.315a18.633,18.633,0,0,1-1.619,1.6,6.261,6.261,0,0,1-4.192,1.574,7.163,7.163,0,0,1-4.205-1.4,11.457,11.457,0,0,1-4.334-5.148,13.72,13.72,0,0,1-.481-1.694c-.062-.261-.126-.528-.2-.788a36.8,36.8,0,0,1,2.018-8.637q.248-.763.5-1.527l.017-.054c.962-2.971,1.957-6.044,3.034-9.031.517-1.433,1.16-2.847,1.783-4.214.277-.609.561-1.234.831-1.853.151-.346.307-.7.459-1.034.3-.678.617-1.378.9-2.077.38-.947.757-1.495,1.561-1.495a3.255,3.255,0,0,1,.882.149,14.206,14.206,0,0,1,3.67,1.524,3.783,3.783,0,0,1,1.76,2.217,4.644,4.644,0,0,1-.319,2.87c-.7,1.762-1.436,3.543-2.149,5.266-1.194,2.883-2.426,5.859-3.513,8.834-.892,2.44-1.61,4.991-2.3,7.458-.3,1.08-.617,2.194-.941,3.285l-.018.059a.706.706,0,0,0-.054.334c.086.42.188.844.287,1.254l0,.008q.046.192.092.384c.144-.062.3-.113.453-.163a2.259,2.259,0,0,0,.891-.438c.5-.49,1.017-.979,1.515-1.452a37.828,37.828,0,0,0,5.58-6.141,3.323,3.323,0,0,1,.375-.471,1,1,0,0,1,.639-.374.444.444,0,0,1,.347.187c1.6-4.79,3.273-9.482,5.285-15.053.656-1.816,1.38-3.642,2.08-5.408.51-1.287,1.036-2.613,1.532-3.926.32-.847.357-1.376.122-1.718s-.8-.514-1.81-.516H211.2a49.771,49.771,0,0,0-6.512.573c-1.688.224-3.434.456-5.166.539-.493.023-1,.035-1.5.035-.561,0-1.133-.015-1.7-.044-.51-.026-1.364-.069-1.35-.878.009-.572.526-.62.981-.662.1-.009.191-.018.279-.031l3.446-.51,3.686-.545a4.175,4.175,0,0,1-.472.027,4.133,4.133,0,0,1-3.647-2.13,2.787,2.787,0,0,1-.221-1.535,27.607,27.607,0,0,1,2.2-7.3l.014-.034q.137-.337.273-.673a1.792,1.792,0,0,1,1.817-1.174c.1,0,.21.005.319.016A8.356,8.356,0,0,1,208.73,4.6a3.079,3.079,0,0,1,.979,4.121,14.607,14.607,0,0,1-4.431,5.854,3.762,3.762,0,0,1-1.658.731c1.91-.28,3.152-.46,4.288-.622.286-.041.573-.083.86-.126a29.515,29.515,0,0,1,3.92-.406,3.161,3.161,0,0,0,3.1-2.109c.792-1.856,1.53-3.814,2.257-5.984.465-1.39.775-1.883,1.587-1.883A5.03,5.03,0,0,1,220.9,4.4c.167.046.335.09.5.134a7.315,7.315,0,0,1,3.641,1.741,4.2,4.2,0,0,1,1.349,4.324c-.194.726-.188,1.174.019,1.451s.623.406,1.388.426c.324.009.67.013,1.091.013.286,0,.572,0,.858,0s.572,0,.859,0l0-.312h.185c.505,0,1.017,0,1.513-.007h.023c.564,0,1.146-.008,1.72-.008,1.083,0,1.96.015,2.762.046a2.749,2.749,0,0,1,1.774.669,1.9,1.9,0,0,1,.542,1.927,2.123,2.123,0,0,1-1.806,1.257c-.966.139-1.961.185-2.924.23h-.006c-.351.016-.714.033-1.07.054L232,16.418c-1.792.108-3.644.219-5.469.292a3.11,3.11,0,0,0-3.084,2.066c-.711,1.715-1.471,3.443-2.206,5.115a97.82,97.82,0,0,0-5.393,14.25c-.411,1.557-.986,3.1-1.543,4.587-.385,1.03-.781,2.091-1.121,3.15-.97,3.026-1.892,6.122-2.742,9.2-.844,3.058-1.634,6.186-2.4,9.211l-.319,1.261c-.307,1.213-.653,2.649-.893,4.108a2.493,2.493,0,0,0,.138,1.025c.043.156.087.317.117.473.138-.071.29-.133.438-.193a2.188,2.188,0,0,0,.862-.508,25.523,25.523,0,0,0,2.4-3.206c2.123-3.5,4.289-7.159,6.62-11.191,1.109-1.916,2.211-3.879,3.277-5.777l.91-1.619a15.792,15.792,0,0,1-.4-8.419,30.122,30.122,0,0,1,7.292-14.955,43.9,43.9,0,0,1,4.939-4.347c.468-.372.951-.757,1.422-1.14a3.143,3.143,0,0,1,2.063-.71,5.5,5.5,0,0,1,1.561.251c.46.136.933.257,1.391.374a23.192,23.192,0,0,1,2.267.662l.26.1.013,0A11.146,11.146,0,0,1,245.51,22c1.581,1.254,2.073,3.037,1.5,5.452a60.036,60.036,0,0,1-4.508,11.776l-.1.206a42.423,42.423,0,0,1-2.5,4.752,16.688,16.688,0,0,1-2.763,3.123,2.492,2.492,0,0,1-1.734.7,3.615,3.615,0,0,1-1.244-.246,9.732,9.732,0,0,1-3.871-2.4c-.347-.367-.779-.824-1.247-.824a.8.8,0,0,0-.45.147,2.549,2.549,0,0,0-.881,1.658,14.269,14.269,0,0,0-.121,3.78c.359,2.531,1.753,3.982,3.825,3.982a5.458,5.458,0,0,0,.894-.078,13.494,13.494,0,0,0,6.725-3.3,74.108,74.108,0,0,0,8.7-9.405c1.542-1.891,3.188-3.747,4.78-5.543l.723-.816a1.73,1.73,0,0,1,.633-.38c.109-.046.22-.094.323-.148a3.876,3.876,0,0,0,.16.4,1.338,1.338,0,0,1,.188.825l-.048.158a25.825,25.825,0,0,1-3.478,8.053c-.693.946-1.384,1.919-2.052,2.859l-.005.007c-1.23,1.732-2.5,3.522-3.837,5.215a31.338,31.338,0,0,1-4.178,4.289,7.92,7.92,0,0,1-5.412,1.773c-.239,0-.488-.007-.74-.02-.193.011-.387.016-.579.016a12.714,12.714,0,0,1-7.642-2.887,14.631,14.631,0,0,1-3.8-4A17.242,17.242,0,0,1,222.2,52.9c-1.548,3.978-3.339,8.128-5.477,12.688a76.493,76.493,0,0,1-4.1,7.349,9.87,9.87,0,0,1-5.572,4.628A6.377,6.377,0,0,1,205.162,77.878Zm33.95-51.827h0c-.145.1-.28.179-.409.259a4.6,4.6,0,0,0-.685.479c-.26.236-.5.5-.74.755-.165.178-.335.362-.51.536a32.961,32.961,0,0,0-6.857,10.439,3.866,3.866,0,0,0,.5,3.746c.251.449.518.659.84.659a1.368,1.368,0,0,0,.774-.318,9.244,9.244,0,0,0,2.886-4.006c1.2-2.745,2.369-5.562,3.494-8.286l.022-.054q.524-1.269,1.05-2.536a1.9,1.9,0,0,0,.211-.946,1.04,1.04,0,0,0-.348-.483c-.078-.077-.159-.156-.232-.242ZM106.179,77.878a4.919,4.919,0,0,1-2.539-.7A9.031,9.031,0,0,1,99,66.788a186.986,186.986,0,0,1,5.729-22.3c1.687-5.085,3.466-10.1,5.619-16.056.147-.4.3-.823.472-1.28-.246.174-.47.326-.682.465-.43.282-.877.55-1.309.809A17.268,17.268,0,0,0,106,30.391a16.7,16.7,0,0,1-2.879,1.948c-.481.279-.977.567-1.449.871l-.472.3c-1,.646-2.038,1.314-3.016,2.028-1.822,1.331-2,2.011-1.062,4.042.171.37.357.738.538,1.094s.357.7.524,1.064a12.078,12.078,0,0,1,1.061,7.352,15.327,15.327,0,0,1-3.238,6.663c-1.547,1.958-3.883,2.307-5.745,2.392l-.467.01.467-.01c-.172.008-.334.01-.51.01-.149,0-.3,0-.447,0s-.3,0-.447,0c-4.081-.36-7.114-1.47-9.546-3.491l-.13.2A5.231,5.231,0,0,1,74.711,57.4,6.682,6.682,0,0,1,71.2,56.322a10.585,10.585,0,0,1-5.294-8.47,11.416,11.416,0,0,0-.3-1.868c-.071-.284-.339-.761-.51-.769h-.022a1.1,1.1,0,0,0-.781.467c-.672.964-1.34,1.956-1.986,2.916l0,0c-1.253,1.861-2.549,3.786-3.931,5.59-1.4,1.825-2.869,2.675-4.63,2.675-.142,0-.288-.006-.434-.017-.349-.028-.7-.041-1.048-.055a6.749,6.749,0,0,1-4.09-1.074,11.658,11.658,0,0,1-3.3-3.66,11.48,11.48,0,0,1-1.367-5.134,15.357,15.357,0,0,1,2.369-9.213c.672-1.065,1.32-2.176,1.945-3.251a62.63,62.63,0,0,1,3.433-5.452,35.749,35.749,0,0,1,3.869-4.244c.557-.549,1.132-1.116,1.681-1.687.134-.14.268-.286.4-.427a6.834,6.834,0,0,1,1.468-1.324,6.456,6.456,0,0,1,3.377-.845c.089,0,.181,0,.273,0a15.2,15.2,0,0,1,9.531,3.639,2.467,2.467,0,0,0,1.254.71c.395,0,.653-.407.992-1.158.132-.292.274-.606.413-.925.664-1.526.967-2.019,2.015-2.019a9.741,9.741,0,0,1,1.341.137,5.439,5.439,0,0,1,3.571,2.4,4.6,4.6,0,0,1,.787,3.593,30.4,30.4,0,0,1-1.53,4.354c-.257.627-.522,1.275-.764,1.919-.3.8-.6,1.606-.889,2.386-.656,1.767-1.335,3.593-2.03,5.378-.265.679-.563,1.354-.852,2.006-.383.864-.779,1.758-1.1,2.668a34.281,34.281,0,0,0-1.267,4.713,2.3,2.3,0,0,0,.263,1.176c.075.186.152.379.205.562.169-.049.354-.084.533-.117a2.251,2.251,0,0,0,1.056-.376l.055-.048.055-.048A1.892,1.892,0,0,1,76.3,49.22,16.548,16.548,0,0,1,79.193,46.2c2.1-1.673,4.276-3.312,6.384-4.9l.005,0c.771-.58,1.569-1.18,2.359-1.779.157-.119.321-.234.48-.345.219-.153.446-.311.655-.483a2.057,2.057,0,0,0,.666-2.983c-.6-1.24-1.217-2.522-1.9-3.752a11.019,11.019,0,0,1-.688-9.836c.818-2.061,2.4-3.6,4.226-5.268a7.861,7.861,0,0,1,1.123-.84,6.875,6.875,0,0,1,3.629-1.253,5.207,5.207,0,0,1,1.088.118,21.842,21.842,0,0,1,3.515,1.013c2.924-.435,5.559-.825,8.194-1.2.286-.041.573-.083.86-.126a29.515,29.515,0,0,1,3.92-.406,3.161,3.161,0,0,0,3.1-2.109c.792-1.856,1.53-3.814,2.257-5.984.465-1.39.775-1.883,1.587-1.883a5.03,5.03,0,0,1,1.261.225c.167.046.335.09.5.134a7.315,7.315,0,0,1,3.641,1.741,4.2,4.2,0,0,1,1.349,4.324c-.194.726-.188,1.174.019,1.451s.623.406,1.388.426c.324.009.67.013,1.091.013.286,0,.572,0,.858,0s.572,0,.859,0l0-.312h.185c.5,0,1.017,0,1.512-.007h.023c.563,0,1.146-.008,1.72-.008,1.083,0,1.96.015,2.762.046a2.753,2.753,0,0,1,1.775.669,1.9,1.9,0,0,1,.541,1.926,2.123,2.123,0,0,1-1.807,1.257c-.966.139-1.961.185-2.924.23H135.4c-.351.016-.714.033-1.07.054l-1.319.079c-1.794.108-3.646.219-5.469.292a3.11,3.11,0,0,0-3.084,2.066c-.711,1.714-1.47,3.441-2.2,5.111l0,.006a97.791,97.791,0,0,0-5.392,14.247c-.411,1.557-.987,3.1-1.543,4.588-.384,1.028-.781,2.09-1.121,3.149-.97,3.026-1.892,6.122-2.742,9.2-.844,3.058-1.634,6.186-2.4,9.211l-.319,1.261c-.307,1.213-.653,2.649-.893,4.108a2.493,2.493,0,0,0,.138,1.025c.043.156.087.317.117.473.138-.071.29-.133.438-.193a2.188,2.188,0,0,0,.862-.508,25.523,25.523,0,0,0,2.4-3.206c2.123-3.5,4.289-7.159,6.62-11.191,1.111-1.919,2.213-3.883,3.279-5.782l.038-.068.869-1.546a15.792,15.792,0,0,1-.4-8.419,30.128,30.128,0,0,1,7.292-14.955,43.9,43.9,0,0,1,4.939-4.347c.468-.372.951-.757,1.422-1.14a3.143,3.143,0,0,1,2.063-.71,5.5,5.5,0,0,1,1.561.251c.459.136.932.257,1.389.373a23.254,23.254,0,0,1,2.271.663l.274.1A11.142,11.142,0,0,1,146.527,22c1.581,1.254,2.073,3.037,1.5,5.452a60.035,60.035,0,0,1-4.508,11.776l-.1.22a42.156,42.156,0,0,1-2.5,4.738,16.688,16.688,0,0,1-2.763,3.123,2.492,2.492,0,0,1-1.734.7,3.615,3.615,0,0,1-1.244-.246,9.738,9.738,0,0,1-3.871-2.4c-.347-.367-.779-.824-1.247-.824a.8.8,0,0,0-.45.147,2.555,2.555,0,0,0-.881,1.658,14.268,14.268,0,0,0-.122,3.78c.359,2.531,1.753,3.982,3.825,3.982a5.458,5.458,0,0,0,.894-.078,13.494,13.494,0,0,0,6.725-3.3,74.113,74.113,0,0,0,8.7-9.405c.783-.96,1.649-1.98,2.725-3.212a110.636,110.636,0,0,1,4.089-11.99c1.281-3.256,2.681-6.588,4.162-9.9.634-1.422,1.331-2.841,2.005-4.213s1.362-2.772,1.993-4.185c.825-1.843,1.533-3.783,2.219-5.66l.228-.624C166.588.415,167.037,0,167.836,0a4.6,4.6,0,0,1,1.157.188,8.022,8.022,0,0,1,3.974,2.818,3.106,3.106,0,0,1,.623,3.316l-.166.4c-.7,1.673-1.426,3.4-2.1,5.126-.179.456-.327.936-.47,1.4a15.339,15.339,0,0,1-.641,1.8c-.634,1.395-1.3,2.8-1.952,4.157-1.026,2.151-2.088,4.374-3.028,6.613-1.169,2.781-2.212,5.679-3.221,8.482-.3.829-.607,1.686-.916,2.531-.275.751-.5,1.54-.715,2.3l0,.01c-.1.352-.2.715-.31,1.07l.171.044.017,0,.215.056c.733-1.153,1.472-2.325,2.187-3.458l0,0c1.658-2.628,3.372-5.345,5.1-7.986a26.321,26.321,0,0,1,7.125-6.965,4.64,4.64,0,0,1,2.734-.824,6.318,6.318,0,0,1,1.391.161,20.518,20.518,0,0,1,4.192,1.426c3.155,1.48,4,4.383,4.643,7.48a15.619,15.619,0,0,1-.244,5.893c-.068.4-.138.805-.2,1.206a35.188,35.188,0,0,1-4.865,13A8.126,8.126,0,0,1,181.1,52.1l-.382.348c-1.495,1.361-3.04,2.768-4.685,4a6.6,6.6,0,0,1-4.1,1.3,12.554,12.554,0,0,1-3.763-.66c-.267-.084-.541-.167-.8-.247a11.731,11.731,0,0,1-4.95-2.42,1.43,1.43,0,0,0-.976-.441,1.624,1.624,0,0,0-1.164.608,4.707,4.707,0,0,1-3.285,1.853,3.587,3.587,0,0,1-1.318-.268,9.242,9.242,0,0,1-3.622-2.612,8.954,8.954,0,0,1-2.164-6.693l-.06.087c-1.112,1.564-2.373,3.336-3.681,4.993a31.337,31.337,0,0,1-4.178,4.289,7.92,7.92,0,0,1-5.412,1.773c-.239,0-.488-.007-.74-.02-.193.011-.387.016-.579.016a12.714,12.714,0,0,1-7.642-2.887,14.631,14.631,0,0,1-3.8-4,17.242,17.242,0,0,1-.576,1.779c-1.548,3.978-3.34,8.128-5.477,12.688a76.135,76.135,0,0,1-4.1,7.349,9.87,9.87,0,0,1-5.572,4.628A6.377,6.377,0,0,1,106.179,77.878ZM67.686,25.28a2.4,2.4,0,0,0-1.209.328A27.364,27.364,0,0,0,60.4,30.683a51.192,51.192,0,0,0-6.261,8.5,31.291,31.291,0,0,0-4.007,9,15.472,15.472,0,0,0-.29,1.94c-.032.3-.064.6-.1.9l.179.029c.01.121.019.242.027.363.02.29.04.59.088.883a1.467,1.467,0,0,0,.177.434c.027.05.054.1.079.151.317.65.617.928,1,.928a1.629,1.629,0,0,0,.778-.261,4.6,4.6,0,0,0,1.218-1.009l.321-.374a33.124,33.124,0,0,0,2.3-2.891c1.24-1.823,2.472-3.69,3.663-5.5,1.043-1.581,2.122-3.215,3.2-4.813,2.731-4.046,5-7.343,7.153-10.377a1.579,1.579,0,0,0-.029-2.074A2.717,2.717,0,0,0,67.686,25.28Zm24,16.206a2.073,2.073,0,0,0-1.17.515c-2.755,2.093-5.242,3.986-7.771,5.967a19.573,19.573,0,0,0-2.524,2.283,1.63,1.63,0,0,0-.538,1.482,1.578,1.578,0,0,0,1.206.942,20.188,20.188,0,0,0,2.3.469H83.2c.332.054.676.111,1.012.174l.033-.216c.106,0,.215,0,.319.006s.213.006.319.006a3.5,3.5,0,0,0,.365-.016c.254-.027.516-.045.768-.063a4.879,4.879,0,0,0,3.051-.9,10.1,10.1,0,0,0,3.628-9.265C92.574,41.965,92.227,41.486,91.687,41.486ZM179.37,25.717a2.361,2.361,0,0,0-1.408.535c-.332.3-.67.609-1,.9a28.516,28.516,0,0,0-4.11,4.243c-2.277,3.131-4.3,6.5-6.334,9.959-.894,1.517-1.69,3.133-2.46,4.695-.407.826-.827,1.68-1.258,2.511a2.331,2.331,0,0,0,.482,2.691,4.318,4.318,0,0,0,3.391,1.869,3.91,3.91,0,0,0,2.44-.9,20.809,20.809,0,0,0,5.434-5.632c.353-.614.743-1.224,1.12-1.813a23.26,23.26,0,0,0,2.016-3.607,44.181,44.181,0,0,0,2.762-11.526c.077-.652.157-1.326.248-1.986-.1-.221-.187-.464-.269-.7-.181-.517-.352-1.006-.663-1.159A.892.892,0,0,0,179.37,25.717Zm-39.241.334h0c-.146.1-.28.18-.411.26a4.591,4.591,0,0,0-.684.478c-.26.236-.5.5-.74.755-.165.178-.335.362-.51.536a32.96,32.96,0,0,0-6.857,10.439,3.866,3.866,0,0,0,.5,3.746c.251.449.518.659.84.659a1.368,1.368,0,0,0,.774-.318,9.243,9.243,0,0,0,2.886-4.006c1.206-2.746,2.37-5.564,3.5-8.289l.013-.031q.528-1.279,1.058-2.557a1.907,1.907,0,0,0,.211-.946,1.043,1.043,0,0,0-.349-.484c-.078-.076-.159-.155-.231-.241Zm-27.912-9.183a49.8,49.8,0,0,0-6.513.573c-.646.086-1.313.174-1.972.253a1.926,1.926,0,0,1,.231.317,1.079,1.079,0,0,1,.15.883,1.025,1.025,0,0,1-.629.591,1.625,1.625,0,0,1-.384.112c-2.659.383-4.6,2.144-6.316,3.7-2.976,2.7-4.126,5.76-3.418,9.109.273,1.293.641,1.82,1.269,1.82a3.152,3.152,0,0,0,1.475-.561c.8-.475,1.59-.985,2.358-1.478.941-.6,1.913-1.23,2.9-1.794,2.069-1.185,4.2-2.344,6.257-3.465l.034-.018c.811-.441,1.649-.9,2.471-1.349.539-.3,1.1-.6,1.648-.886q.32-.814.643-1.626c.512-1.291,1.041-2.625,1.539-3.945.32-.847.357-1.376.122-1.718s-.8-.514-1.81-.516ZM27.5,68.452h-.015a6.774,6.774,0,0,1-3.516-.729A28.368,28.368,0,0,1,20.8,65.336l-.082-.068a3.329,3.329,0,0,1-1.253-2.627c-.008-.754-.053-1.519-.1-2.259-.019-.315-.038-.64-.054-.962a33.242,33.242,0,0,1,1.409-8.473c1.176-4.216,2.709-8.387,4.193-12.421q.332-.9.663-1.806l.159-.434c1.4-3.827,2.844-7.784,4.6-11.542l.169-.363c.332-.71.674-1.442.993-2.171a.362.362,0,0,0-.048-.344.433.433,0,0,0-.34-.209.276.276,0,0,0-.071.009c-.308.082-.623.162-.927.239h-.006c-.852.217-1.732.44-2.575.729-.633.217-1.277.434-1.9.644-2.453.828-4.989,1.684-7.422,2.677a49.443,49.443,0,0,0-9.9,5.138,10.453,10.453,0,0,0-3,3.043,4.685,4.685,0,0,0-.94,2.8,2.427,2.427,0,0,1-.058.64.991.991,0,0,1-.944.82.823.823,0,0,1-.541-.2A6.634,6.634,0,0,1,.114,33.725c0-.06-.012-.121-.019-.18l0-.034a8.319,8.319,0,0,1,2.615-7.593,22.715,22.715,0,0,1,4.72-3.34,95.939,95.939,0,0,1,10.594-4.713A164.434,164.434,0,0,1,36.039,12.2c2.059-.552,4.183-1,6.236-1.433,1.19-.251,2.419-.51,3.623-.787C49.452,9.16,53,8.49,56.442,7.982c1.316-.194,2.877-.413,4.472-.571.649-.064,1.309-.137,1.947-.208a56.909,56.909,0,0,1,6.212-.455h.2a2.488,2.488,0,0,1,2.536,1.564,7.321,7.321,0,0,1,.78,3.956A1.958,1.958,0,0,1,70.774,14.3l-.454.094-.034.007a29.816,29.816,0,0,1-4.165.66,78.249,78.249,0,0,0-8.107.864c-1.493.25-2.988.5-4.435.737-1.879.311-3.822.632-5.741.956-.385.065-.772.156-1.146.243-.243.057-.494.116-.743.167l-.023,0c-2.307.476-2.307.476-3.426,2.39a15.994,15.994,0,0,0-.806,1.521c-.446.994-.888,2.011-1.315,2.994l0,.005c-.864,1.989-1.758,4.046-2.734,6.02-1.367,2.766-2.48,5.6-3.595,8.507-.824,2.146-1.592,4.354-2.334,6.488l-.136.391c-.311.9-.609,1.812-.9,2.7-.234.72-.475,1.463-.723,2.191a23.609,23.609,0,0,0-1.393,5.611,11.851,11.851,0,0,1-.315,1.689c-.081.343-.166.7-.228,1.049a12.569,12.569,0,0,0,.446,6.782c.013.035.027.069.04.1l0,.007a2.225,2.225,0,0,1,.1.294,1.466,1.466,0,0,1-.2,1.262A1.117,1.117,0,0,1,27.5,68.452Z" transform="translate(0 0)"/>
    <g id="Mask_Group_2" data-name="Mask Group 2" clip-path="url(#clip-path)">
      <rect id="Color" width="255" height="78"/>
    </g>
  </g>
</svg>
