<svg xmlns="http://www.w3.org/2000/svg" width="13.333" height="14.666" viewBox="0 0 13.333 14.666">
  <path id="Shape" d="M2,14.666a2,2,0,0,1-2-2V3.333a2,2,0,0,1,2-2H3.334V.667a.667.667,0,0,1,1.333,0v.667h4V.667A.667.667,0,0,1,10,.667v.667h1.333a2,2,0,0,1,2,2v9.334a2,2,0,0,1-2,2Zm-.667-2A.667.667,0,0,0,2,13.333h9.334A.667.667,0,0,0,12,12.667v-6H1.333ZM12,5.333v-2a.667.667,0,0,0-.667-.667H10v.667a.667.667,0,0,1-1.334,0V2.666h-4v.667a.667.667,0,1,1-1.333,0V2.666H2a.667.667,0,0,0-.667.667v2Z" fill="#7F7F7F"/>
</svg>
