<svg xmlns="http://www.w3.org/2000/svg" width="14.086" height="14.373" viewBox="0 0 14.086 14.373">
  <g id="google-icon_3_" data-name="google-icon (3)" transform="translate(0 0)">
    <path id="Path" d="M6.9,1.469A6.159,6.159,0,0,0,6.748,0H0V2.667H3.961A3.512,3.512,0,0,1,2.491,5l-.013.089L4.611,6.741l.148.015A7.027,7.027,0,0,0,6.9,1.469" transform="translate(7.187 5.877)" fill="#4285f4"/>
    <path id="Path-2" data-name="Path" d="M6.42,5.765a6.85,6.85,0,0,0,4.759-1.741L8.912,2.268a4.254,4.254,0,0,1-2.491.719A4.326,4.326,0,0,1,2.332,0L2.247.007.029,1.724,0,1.8A7.182,7.182,0,0,0,6.42,5.765" transform="translate(0.767 8.608)" fill="#34a853"/>
    <path id="Path-3" data-name="Path" d="M3.1,4.682a4.424,4.424,0,0,1-.24-1.421A4.649,4.649,0,0,1,3.09,1.84l0-.1L.84,0,.767.035a7.172,7.172,0,0,0,0,6.452L3.1,4.682" transform="translate(0 3.926)" fill="#fbbc05"/>
    <path id="Path-4" data-name="Path" d="M6.42,2.779A3.983,3.983,0,0,1,9.2,3.849l2.028-1.98A6.9,6.9,0,0,0,6.42,0,7.181,7.181,0,0,0,0,3.961l2.324,1.8a4.344,4.344,0,0,1,4.1-2.987" transform="translate(0.767)" fill="#eb4335"/>
  </g>
</svg>
