<?xml version="1.0" encoding="UTF-8"?>
<svg width="100px" height="20px" viewBox="0 0 100 20" version="1.1" xmlns="http://www.w3.org/2000/svg" xmlns:xlink="http://www.w3.org/1999/xlink">
    <title>Faccebook Logo</title>
    <g id="🌶-UI-Kit" stroke="none" stroke-width="1" fill="none" fill-rule="evenodd">
        <g id="Profile-Desktop" transform="translate(-165.000000, -966.000000)" fill="#004F9D" fill-rule="nonzero">
            <g id="Content" transform="translate(164.000000, 199.000000)">
                <g id="Connected-Accounts" transform="translate(0.000000, 693.000000)">
                    <g id="Account" transform="translate(0.000000, 74.000000)">
                        <g id="Faccebook-Logo" transform="translate(1.000000, 0.000000)">
                            <path d="M7.83302064,3.04878049 C6.66041276,3.04878049 6.30863039,3.56472795 6.30863039,4.71388368 L6.30863039,6.61350844 L9.45121951,6.61350844 L9.14634146,9.70919325 L6.30863039,9.70919325 L6.30863039,19.0666041 L2.53283302,19.0666041 L2.53283302,9.70919325 L0,9.70919325 L0,6.6369606 L2.53283302,6.6369606 L2.53283302,4.78424015 C2.53283302,1.64165103 3.79924953,0 7.29362101,0 C8.0206379,0 8.77110694,0.0469043152 9.49812383,0.140712946 L9.49812383,3.04878049" id="_Path_"></path>
                            <path d="M9.70919325,12.4530957 C9.70919325,8.98217636 11.3508443,6.35553471 14.8217636,6.35553471 C16.6979362,6.35553471 17.8470919,7.31707317 18.4099437,8.53658537 L18.4099437,6.6369606 L22.021576,6.6369606 L22.021576,19.0900563 L18.3864916,19.0900563 L18.3864916,17.2138837 C17.8705441,18.4099437 16.6744841,19.34803 14.7983114,19.34803 C11.3508443,19.34803 9.68574109,16.7448405 9.68574109,13.250469 M13.4849906,13.2973734 C13.4849906,15.1500938 14.1651032,16.3930582 15.924015,16.3930582 C17.4718574,16.3930582 18.2457786,15.2673546 18.2457786,13.4849906 L18.2457786,12.2185741 C18.2457786,10.4362101 17.4484053,9.31050657 15.924015,9.31050657 C14.1651032,9.31050657 13.4849906,10.5300188 13.4849906,12.4061914 L13.4849906,13.2973734 L13.4849906,13.2973734 Z" id="_Compound_Path_"></path>
                            <path d="M29.8545966,6.35553471 C31.3086304,6.35553471 32.7157598,6.66041276 33.4662289,7.19981238 L32.6219512,9.87335835 C31.84803,9.49812383 30.9803002,9.31050657 30.1125704,9.31050657 C28.0722326,9.31050657 27.1810507,10.4831144 27.1810507,12.5 L27.1810507,13.2270169 C27.1810507,15.2439024 28.0722326,16.4165103 30.1125704,16.4165103 C30.9803002,16.4165103 31.84803,16.2054409 32.6219512,15.8302064 L33.4662289,18.5037523 C32.7157598,19.0196998 31.3320826,19.34803 29.8545966,19.34803 C25.4221388,19.34803 23.4287054,16.9793621 23.4287054,13.1566604 L23.4287054,12.5703565 C23.4287054,8.74765478 25.4221388,6.35553471 29.8545966,6.35553471" id="_Path_2"></path>
                            <path d="M33.9587242,13.3208255 L33.9587242,12.2185741 C33.9587242,8.67729831 35.9756098,6.35553471 40.0797373,6.35553471 C43.9493433,6.35553471 45.6613508,8.70075047 45.6613508,12.1716698 L45.6613508,14.1651032 L37.7345216,14.1651032 C37.804878,15.8771107 38.5787992,16.6275797 40.6660413,16.6275797 C42.0262664,16.6275797 43.3864916,16.369606 44.6763602,15.8771107 L45.3564728,18.456848 C44.3714822,18.9727955 42.3311445,19.3714822 40.5253283,19.3714822 C35.7410882,19.34803 33.9587242,16.9793621 33.9587242,13.3208255 M37.7345216,11.6791745 L42.2842402,11.6791745 L42.2842402,11.3742964 C42.2842402,10.0140713 41.7448405,8.93527205 40.0797373,8.93527205 C38.391182,8.93527205 37.7345216,10.0140713 37.7345216,11.6791745" id="_Compound_Path_2"></path>
                            <path d="M59.6388368,13.250469 C59.6388368,16.7213884 57.9737336,19.34803 54.5028143,19.34803 C52.6266417,19.34803 51.3133208,18.4099437 50.7973734,17.2138837 L50.7973734,19.0900563 L47.2326454,19.0900563 L47.2326454,0.375234522 L51.0084428,0.0469043152 L51.0084428,8.37242026 C51.5478424,7.27016886 52.7673546,6.37898687 54.5262664,6.37898687 C57.9737336,6.37898687 59.6622889,8.98217636 59.6622889,12.4765478 M55.8630394,12.3827392 C55.8630394,10.6238274 55.1829268,9.31050657 53.3771107,9.31050657 C51.8292683,9.31050657 51.0084428,10.412758 51.0084428,12.195122 L51.0084428,13.5084428 C51.0084428,15.2908068 51.8527205,16.3930582 53.3771107,16.3930582 C55.1829268,16.3930582 55.8630394,15.0797373 55.8630394,13.3208255 L55.8630394,12.3827392 Z" id="_Compound_Path_3"></path>
                            <path d="M60.8818011,13.1566604 L60.8818011,12.5234522 C60.8818011,8.93527205 62.9221388,6.35553471 67.0731707,6.35553471 C71.2242026,6.35553471 73.2645403,8.93527205 73.2645403,12.5234522 L73.2645403,13.1566604 C73.2645403,16.7448405 71.2242026,19.3245779 67.0731707,19.3245779 C62.9221388,19.3245779 60.8818011,16.7682927 60.8818011,13.1566604 M69.5121951,12.2654784 C69.5121951,10.6238274 68.8320826,9.31050657 67.0731707,9.31050657 C65.3142589,9.31050657 64.6341463,10.6238274 64.6341463,12.2654784 L64.6341463,13.4380863 C64.6341463,15.0797373 65.3142589,16.3930582 67.0731707,16.3930582 C68.8320826,16.3930582 69.5121951,15.0797373 69.5121951,13.4380863 L69.5121951,12.2654784 L69.5121951,12.2654784 Z" id="_Compound_Path_4"></path>
                            <path d="M74.554409,13.1566604 L74.554409,12.5234522 C74.554409,8.93527205 76.5947467,6.35553471 80.7457786,6.35553471 C84.8968105,6.35553471 86.9371482,8.93527205 86.9371482,12.5234522 L86.9371482,13.1566604 C86.9371482,16.7448405 84.8968105,19.3245779 80.7457786,19.3245779 C76.5947467,19.3245779 74.554409,16.7682927 74.554409,13.1566604 M83.184803,12.2654784 C83.184803,10.6238274 82.5046904,9.31050657 80.7457786,9.31050657 C78.9868668,9.31050657 78.3067542,10.6238274 78.3067542,12.2654784 L78.3067542,13.4380863 C78.3067542,15.0797373 78.9868668,16.3930582 80.7457786,16.3930582 C82.5046904,16.3930582 83.184803,15.0797373 83.184803,13.4380863 L83.184803,12.2654784 L83.184803,12.2654784 Z" id="_Compound_Path_5"></path>
                            <polyline id="_Path_3" points="92.120075 12.5703565 95.8489681 6.61350844 99.8358349 6.61350844 95.9427767 12.7814259 100 19.0900563 95.9896811 19.0900563 92.120075 12.9924953 92.120075 19.0900563 88.3677298 19.0900563 88.3677298 0.375234522 92.120075 0.0234521576"></polyline>
                        </g>
                    </g>
                </g>
            </g>
        </g>
    </g>
</svg>