<?xml version="1.0" encoding="UTF-8"?>
<svg width="101px" height="33px" viewBox="0 0 101 33" version="1.1" xmlns="http://www.w3.org/2000/svg" xmlns:xlink="http://www.w3.org/1999/xlink">
    <title>Google Logo</title>
    <g id="🌶-UI-Kit" stroke="none" stroke-width="1" fill="none" fill-rule="evenodd">
        <g id="Profile-Desktop" transform="translate(-165.000000, -1068.000000)" fill-rule="nonzero">
            <g id="Content" transform="translate(164.000000, 199.000000)">
                <g id="Connected-Accounts" transform="translate(0.000000, 693.000000)">
                    <g id="Account" transform="translate(0.000000, 176.000000)">
                        <g id="Google-Logo" transform="translate(1.000000, 0.000000)">
                            <path d="M12.350496,0 L13.2394022,0 C16.3254161,0.0670872591 19.3611146,1.30820155 21.5414505,3.50530929 C20.7364034,4.32712821 19.9145845,5.1154035 19.1263092,5.93722243 C17.9019667,4.83028265 16.426047,3.9749201 14.8159528,3.67302743 C12.4343551,3.16987299 9.86826746,3.62271199 7.8724215,4.98122898 C5.69208558,6.40683324 4.21616588,8.82197457 3.8975014,11.404834 C3.54529329,13.9541499 4.26648133,16.6376402 5.92689099,18.6167144 C7.52021339,20.5454731 9.95212653,21.7530437 12.4678987,21.8369028 C14.8159528,21.9710773 17.2646378,21.2498893 18.9753629,19.6062515 C20.3171081,18.4489962 20.9376652,16.6879557 21.138927,14.9772306 C18.3548057,14.9772306 15.5706845,14.9940024 12.7865632,14.9772306 L12.7865632,11.5222367 L24.5100617,11.5222367 C25.1138471,15.2288078 24.2417127,19.4049897 21.4240478,22.0549364 C19.5456046,23.9333797 16.9459733,25.0403194 14.2960266,25.258353 C11.7299389,25.5099303 9.07999216,25.0235476 6.79902536,23.7824333 C4.06521955,22.3232855 1.88488363,19.8578287 0.811487486,16.9563047 C-0.1948214,14.2895862 -0.211593215,11.2706595 0.727628412,8.58716916 C1.58299096,6.1384842 3.22662881,3.9749201 5.33987747,2.46545677 C7.36926706,0.972765256 9.83472383,0.150946333 12.350496,0 Z" id="Path" fill="#3780FF"></path>
                            <path d="M79.6054732,0.872134368 L83.1946416,0.872134368 L83.1946416,24.8222859 C82.0038428,24.8222859 80.7962721,24.8390577 79.6054732,24.805514 C79.6222451,16.838902 79.6054732,8.8555182 79.6054732,0.872134368 Z" id="Path" fill="#38B137"></path>
                            <path d="M32.4934456,9.17418268 C34.7073251,8.75488731 37.1056946,9.22449812 38.9338224,10.5494715 C40.5942321,11.7234985 41.7514873,13.5683981 42.1036954,15.5810159 C42.5565344,17.9122982 41.9862927,20.461614 40.4768294,22.3065136 C38.8499634,24.3694469 36.1832448,25.4763866 33.5836135,25.3086685 C31.2020158,25.174494 28.8875054,23.9836951 27.478673,22.0381646 C25.8853506,19.8913723 25.4995988,16.9395329 26.3717332,14.4237607 C27.2438676,11.7234985 29.7093243,9.6605653 32.4934456,9.17418268 M32.9966,12.3608275 C32.090922,12.5956329 31.2523313,13.1155591 30.648546,13.853519 C29.0216799,15.7990495 29.1223108,18.9689225 30.916895,20.7802785 C31.9399757,21.820131 33.4829826,22.3065136 34.9085869,22.0213928 C36.2335603,21.7865874 37.3908155,20.8976812 38.0281444,19.7236542 C39.1350842,17.7278082 38.8164197,14.9772306 37.1224664,13.4174518 C36.0322985,12.4111429 34.4389761,11.9918476 32.9966,12.3608275 Z" id="Shape" fill="#FA3913"></path>
                            <path d="M50.2715692,9.17418268 C52.8041133,8.68780005 55.5714627,9.39221627 57.4666778,11.1700286 C60.5526917,13.9373781 60.888128,19.1198688 58.2549531,22.3065136 C56.6616306,24.3191314 54.0787712,25.4260712 51.5294553,25.3086685 C49.0975422,25.2415812 46.6991727,24.0340106 45.2567966,22.0381646 C43.6299306,19.8410569 43.2777225,16.8221302 44.2001723,14.2560425 C45.1226221,11.6396394 47.5377634,9.64379349 50.2715692,9.17418268 M50.7747237,12.3608275 C49.8690457,12.5956329 49.0304549,13.1155591 48.4266696,13.8367472 C46.8165754,15.7487341 46.8836626,18.8682916 48.6111596,20.6964194 C49.6342403,21.7865874 51.2275627,22.3232855 52.7034824,22.0213928 C54.0116839,21.7698156 55.185711,20.8976812 55.8230399,19.7236542 C56.9132079,17.7110364 56.5945434,14.9604588 54.8838183,13.40068 C53.7936503,12.3943711 52.2003279,11.9918476 50.7747237,12.3608275 Z" id="Shape" fill="#FCBD06"></path>
                            <path d="M65.3494307,10.1469479 C67.2781894,8.93937727 69.8442771,8.60394097 71.9239821,9.64379349 C72.5780829,9.92891434 73.1147809,10.415297 73.6347072,10.9016796 C73.651479,10.4488406 73.6347072,9.97922978 73.651479,9.50961897 C74.7751906,9.52639079 75.8989022,9.50961897 77.0393856,9.52639079 L77.0393856,24.3191314 C77.0226138,26.5497828 76.4523721,28.9146087 74.8422779,30.5414747 C73.0812373,32.3360589 70.3809751,32.8895288 67.949062,32.5205488 C65.3494307,32.1347971 63.0852357,30.239582 62.0789268,27.8412125 C63.0852357,27.3548299 64.14186,26.9690781 65.1817125,26.5162391 C65.7687261,27.891528 66.9595249,29.065555 68.4522164,29.333904 C69.9449079,29.6022531 71.6724049,29.2332731 72.6451701,27.9921588 C73.6850226,26.7175009 73.6850226,24.9732322 73.6347072,23.4134534 C72.8632037,24.1681851 71.9742975,24.8390577 70.9009014,25.0906349 C68.5696191,25.7447357 66.0035315,24.9396886 64.2089473,23.363138 C62.3975913,21.7865874 61.3241952,19.3546742 61.424826,16.9395329 C61.4751415,14.2057271 63.0181484,11.5725522 65.3494307,10.1469479 M68.8211964,12.2937402 C67.7981157,12.4614584 66.8421222,13.0317001 66.1880214,13.8199754 C64.6114708,15.6984186 64.6114708,18.7005735 66.2047933,20.5454731 C67.1104712,21.635641 68.5696191,22.2394264 69.9784516,22.08848 C71.3034249,21.9543055 72.5277674,21.1157148 73.1818682,19.9584596 C74.288808,17.9961572 74.104318,15.3294387 72.6116265,13.6187136 C71.6891767,12.5620893 70.213257,12.042163 68.8211964,12.2937402 L68.8211964,12.2937402 Z" id="Shape" fill="#3780FF"></path>
                            <path d="M87.504998,11.0023105 C89.5176158,9.12386723 92.6204015,8.48653827 95.203261,9.47607534 C97.6519459,10.3985252 99.2117247,12.7298074 100,15.1281769 C96.3605162,16.6376402 92.7378042,18.1303318 89.0983204,19.6397951 C89.6014748,20.5957885 90.3729783,21.4679229 91.4128308,21.820131 C92.8719787,22.3400573 94.6162475,22.1555673 95.8405899,21.182802 C96.3269726,20.8138221 96.7127243,20.3274395 97.0817042,19.8578287 C98.004154,20.4783858 98.9266039,21.0821712 99.8490537,21.7027283 C98.5408521,23.6650306 96.3437444,25.0403194 93.9789185,25.258353 C91.3625154,25.5770175 88.5783941,24.5707086 86.8844409,22.5245472 C84.1003196,19.3043588 84.3686686,13.9038344 87.504998,11.0023105 M89.2995822,14.1050962 C88.7293405,14.9269151 88.4945351,15.933224 88.5113069,16.9227611 C90.94322,15.9164522 93.3751332,14.9101433 95.8070463,13.8870626 C95.4045228,12.947841 94.4317575,12.3775993 93.4422204,12.226653 C91.848898,11.9415321 90.1884884,12.7968947 89.2995822,14.1050962 L89.2995822,14.1050962 Z" id="Shape" fill="#FA3913"></path>
                        </g>
                    </g>
                </g>
            </g>
        </g>
    </g>
</svg>