<svg width="16" height="16" viewBox="0 0 16 16" fill="none" xmlns="http://www.w3.org/2000/svg">
<path fill-rule="evenodd" clip-rule="evenodd" d="M8 16C3.57647 16 0 12.4235 0 8C0 3.57647 3.57647 0 8 0C12.4235 0 16 3.57647 16 8C16 12.4235 12.4235 16 8 16ZM14.7294 9.08235C14.4941 8.98824 12.6118 8.47059 10.4941 8.8C11.3882 11.2471 11.7647 13.2706 11.8118 13.6941C13.3647 12.6588 14.4471 11.0118 14.7294 9.08235ZM10.6824 14.3059C10.5882 13.6941 10.1647 11.6235 9.22353 9.12941H9.17647C5.31765 10.4941 3.95294 13.1294 3.81176 13.4118C4.98824 14.3059 6.44706 14.8706 8 14.8706C8.94118 14.8235 9.83529 14.6353 10.6824 14.3059ZM2.91765 12.5647C3.05882 12.2824 4.94118 9.17647 8.47059 8.04706C8.56471 8 8.65882 8 8.75294 7.95294C8.56471 7.57647 8.37647 7.15294 8.18824 6.77647C4.75294 7.81176 1.45882 7.76471 1.17647 7.76471C1.17647 7.81176 1.17647 7.90588 1.17647 7.95294C1.17647 9.78824 1.83529 11.3882 2.91765 12.5647ZM1.31765 6.58824C1.6 6.58824 4.42353 6.58824 7.62353 5.74118C6.49412 3.71765 5.27059 2.02353 5.08235 1.78824C3.2 2.72941 1.74118 4.47059 1.31765 6.58824ZM6.4 1.36471C6.58824 1.6 7.81176 3.29412 8.94118 5.36471C11.3882 4.47059 12.3765 3.05882 12.5176 2.91765C11.2941 1.83529 9.74118 1.17647 8 1.17647C7.43529 1.17647 6.91765 1.22353 6.4 1.36471ZM13.2706 3.67059C13.1294 3.85882 12 5.31765 9.45882 6.35294C9.6 6.68235 9.78823 7.01176 9.92941 7.34118C9.97647 7.48235 10.0235 7.57647 10.0706 7.67059C12.3294 7.38824 14.5882 7.85882 14.8235 7.90588C14.8235 6.35294 14.2588 4.84706 13.2706 3.67059Z" fill="black"/>
</svg>